<?xml version="1.0" encoding="UTF-8"?>
<svg id="Layer_2" data-name="Layer 2" xmlns="http://www.w3.org/2000/svg" viewBox="0 0 37.3 37.3">
  <defs>
    <style>
      .cls-1 {
        fill: #0d419e;
      }
    </style>
  </defs>
  <g id="Layer_1-2" data-name="Layer 1">
    <path class="cls-1" d="M10.93.13c-1.98.09-3.34.41-4.52.88-1.23.48-2.27,1.12-3.3,2.16-1.04,1.04-1.67,2.08-2.15,3.31-.46,1.19-.77,2.54-.86,4.53C.01,12.99,0,13.62,0,18.69c0,5.06.03,5.7.13,7.69.09,1.98.41,3.34.88,4.52.48,1.23,1.12,2.26,2.16,3.3,1.04,1.03,2.08,1.67,3.31,2.14,1.19.46,2.54.77,4.53.86,1.99.09,2.62.11,7.69.1,5.07,0,5.7-.03,7.69-.13,1.98-.09,3.34-.41,4.52-.88,1.23-.48,2.27-1.12,3.3-2.16,1.03-1.04,1.67-2.08,2.14-3.31.46-1.19.77-2.54.86-4.53.09-1.99.11-2.63.1-7.69,0-5.06-.03-5.7-.13-7.69-.09-1.99-.41-3.34-.88-4.53-.48-1.23-1.12-2.26-2.16-3.3-1.04-1.03-2.08-1.67-3.31-2.14-1.19-.46-2.54-.77-4.53-.86C24.31.01,23.68,0,18.61,0c-5.06,0-5.7.03-7.69.13M11.14,33.84c-1.82-.08-2.81-.38-3.46-.63-.87-.34-1.49-.74-2.15-1.39-.65-.65-1.06-1.27-1.4-2.14-.26-.66-.56-1.64-.65-3.46-.09-1.97-.11-2.56-.12-7.54,0-4.98,0-5.57.09-7.54.08-1.82.38-2.81.63-3.46.34-.87.74-1.49,1.39-2.15.65-.65,1.27-1.06,2.14-1.4.66-.26,1.64-.56,3.46-.65,1.97-.09,2.56-.11,7.53-.12,4.98,0,5.57,0,7.54.09,1.82.08,2.81.38,3.46.63.87.34,1.49.74,2.15,1.39.65.65,1.06,1.27,1.4,2.14.26.66.56,1.64.65,3.46.09,1.97.11,2.56.12,7.54,0,4.98,0,5.57-.09,7.54-.08,1.82-.38,2.81-.63,3.46-.34.87-.74,1.49-1.39,2.15-.65.65-1.27,1.06-2.14,1.4-.66.26-1.64.56-3.46.65-1.97.09-2.56.11-7.54.12-4.98,0-5.57,0-7.54-.09M26.35,8.68c0,1.24,1.01,2.24,2.24,2.23,1.24,0,2.24-1.01,2.23-2.24,0-1.24-1.01-2.24-2.24-2.23-1.24,0-2.24,1.01-2.23,2.24M9.07,18.67c.01,5.29,4.31,9.57,9.59,9.56,5.29-.01,9.57-4.3,9.56-9.59-.01-5.29-4.31-9.57-9.6-9.56-5.29.01-9.57,4.31-9.56,9.59M12.43,18.66c0-3.43,2.77-6.22,6.2-6.23,3.43,0,6.22,2.77,6.23,6.2,0,3.43-2.77,6.22-6.21,6.23-3.43,0-6.22-2.77-6.23-6.2"/>
  </g>
</svg>