<?xml version="1.0" encoding="UTF-8"?>
<svg id="Layer_2" data-name="Layer 2" xmlns="http://www.w3.org/2000/svg" viewBox="0 0 40.25 37.3">
  <defs>
    <style>
      .cls-1 {
        fill: #0d419e;
      }
    </style>
  </defs>
  <g id="Layer_1-2" data-name="Layer 1">
    <path class="cls-1" d="M39.18,30.31c-.6,0-1.06.47-1.06,1.06s.47,1.06,1.06,1.06,1.06-.47,1.06-1.06-.47-1.06-1.06-1.06ZM39.18,32.27c-.51,0-.9-.4-.9-.9s.4-.9.9-.9.9.4.9.9-.4.9-.9.9ZM39.42,31.48c.15-.05.24-.16.24-.32,0-.2-.14-.32-.37-.32h-.52v1.06h.18v-.41h.23l.29.41h.23l-.3-.42h.01ZM38.95,31.35v-.35h.3c.13,0,.21.06.21.17,0,.11-.08.18-.21.18h-.3ZM34.55,0H2.75C1.23,0,0,1.23,0,2.75v31.79c0,1.52,1.23,2.75,2.75,2.75h31.79c1.52,0,2.75-1.23,2.75-2.75V2.75c0-1.52-1.23-2.75-2.75-2.75ZM11.12,31.78h-5.61V13.96h5.61v17.81ZM8.31,11.49c-1.79,0-3.23-1.36-3.23-3.22s1.45-3.22,3.23-3.22,3.23,1.36,3.23,3.22-1.45,3.22-3.23,3.22ZM31.79,31.79h-5.61v-9.73c0-2.87-1.22-3.76-2.79-3.76-1.66,0-3.3,1.25-3.3,3.83v9.66h-5.61V13.98h5.39v2.47h.07c.54-1.1,2.44-2.97,5.33-2.97,3.13,0,6.51,1.86,6.51,7.3v11.02Z"/>
  </g>
</svg>