<?xml version="1.0" encoding="UTF-8"?>
<svg id="Layer_2" data-name="Layer 2" xmlns="http://www.w3.org/2000/svg" viewBox="0 0 147.56 131.08">
  <defs>
    <style>
      .cls-1 {
        fill: #0d419e;
      }
    </style>
  </defs>
  <g id="Layer_1-2" data-name="Layer 1">
    <g>
      <path class="cls-1" d="M118.86,39.16h-42.35v.02h-15.32c-5.64,0-10.21,4.57-10.21,10.21v80.66c0,.56.46,1.02,1.02,1.02h23.49c.56,0,1.02-.46,1.02-1.02v-24.46c0-2.54,2.06-4.6,4.6-4.6h37.75c16.74,0,28.7-17.15,28.7-30.97,0-15.25-11.97-30.87-28.7-30.87ZM122.25,69.9c0,9.87-8,17.87-17.87,17.87h-28.08v-35.74h28.08c9.87,0,17.87,8,17.87,17.87h0Z"/>
      <g>
        <path class="cls-1" d="M52.71,0h22.22c.56,0,1.02.46,1.02,1.02v20.93c0,.56-.46,1.02-1.02,1.02h-13.03c-5.64,0-10.21-4.58-10.21-10.21V1.02c0-.56.46-1.02,1.02-1.02Z"/>
        <path class="cls-1" d="M.38,52.34h22.22c.56,0,1.02.46,1.02,1.02v20.93c0,.56-.46,1.02-1.02,1.02h-13.03c-5.64,0-10.21-4.58-10.21-10.21v-11.74c0-.56.46-1.02,1.02-1.02Z" transform="translate(-52.34 75.31) rotate(-90)"/>
        <path class="cls-1" d="M15.71,89.34h22.22c.56,0,1.02.46,1.02,1.02v20.93c0,.56-.46,1.02-1.02,1.02h-13.03c-5.64,0-10.21-4.58-10.21-10.21v-11.74c0-.56.46-1.02,1.02-1.02Z" transform="translate(-25.52 191.09) rotate(-135)"/>
        <path class="cls-1" d="M15.71,15.33h22.22c.56,0,1.02.46,1.02,1.02v20.93c0,.56-.46,1.02-1.02,1.02h-13.03c-5.64,0-10.21-4.58-10.21-10.21v-11.74c0-.56.46-1.02,1.02-1.02Z" transform="translate(-11.11 26.82) rotate(-45)"/>
      </g>
    </g>
  </g>
</svg>