<svg width="108" height="40" viewBox="0 0 108 40" fill="none" xmlns="http://www.w3.org/2000/svg">
<path d="M32.5061 27.741H23.8084V15.9383H32.5061C35.7268 15.9383 38.3377 18.5804 38.3377 21.8398C38.3377 25.0989 35.7268 27.741 32.5061 27.741ZM36.6526 11.9497H19.7642C17.5306 11.9497 15.7198 13.7819 15.7198 16.0421V40H23.8084V33.567C23.8084 32.5523 24.6211 31.7299 25.6238 31.7299H36.6526C42.0504 31.7299 46.4263 27.302 46.4263 21.8398C46.4263 16.3776 42.0504 11.9497 36.6526 11.9497Z" fill="#0047BA"/>
<path d="M15.7199 0.000136375H23.8082V8.27539H19.7641C17.5305 8.27539 15.7199 6.44301 15.7199 4.18279V0.000136375Z" fill="#0047BA"/>
<path d="M2.92908 8.75147L8.64846 2.96385L14.4309 8.8153L11.5712 11.7091C9.99176 13.3072 7.43114 13.3072 5.85185 11.7091L2.92908 8.75147Z" fill="#0047BA"/>
<path d="M0 24.0923V15.9075H8.17769V19.9999C8.17769 22.2601 6.36691 24.0923 4.13334 24.0923H0Z" fill="#0047BA"/>
<path d="M8.64846 37.0356L2.92908 31.248L8.71154 25.3966L11.5712 28.2904C13.1505 29.8887 13.1505 32.4799 11.5712 34.078L8.64846 37.0356Z" fill="#0047BA"/>
<path d="M79.5598 40H74.7078V11.9497H79.5598V40Z" fill="#0047BA"/>
<path d="M56.9326 11.9497H50.4651V40H69.8548V36.0111H58.7481C57.7456 36.0111 56.9326 35.1887 56.9326 34.174V11.9497Z" fill="#0047BA"/>
<path d="M103.793 11.9497V34.8748C103.793 35.5022 103.291 36.0106 102.671 36.0106C102.235 36.0106 101.838 35.7548 101.654 35.3547L90.874 11.9497H84.4065V40H87.6402V17.0748C87.6402 16.4477 88.1426 15.9391 88.7625 15.9391C89.1988 15.9391 89.5955 16.195 89.7797 16.5951L100.559 40H107.027V11.9497H103.793Z" fill="#0047BA"/>
</svg>
